<?xml version="1.0" encoding="UTF-8"?>
<svg xmlns:xlink="http://www.w3.org/1999/xlink" xmlns="http://www.w3.org/2000/svg" viewBox="0 0 432.33 367.16">
    <defs>
        <style>
            .cls-1 {
            fill: url(#linear-gradient-2);
            }

            .cls-2 {
            fill: url(#linear-gradient-14);
            }

            .cls-3 {
            fill: url(#linear-gradient-6);
            }

            .cls-4 {
            fill: url(#linear-gradient-11);
            }

            .cls-5 {
            fill: url(#linear-gradient-10);
            }

            .cls-6 {
            fill: url(#linear-gradient-5);
            }

            .cls-7 {
            fill: url(#linear-gradient-7);
            }

            .cls-8 {
            fill: url(#linear-gradient-9);
            }

            .cls-9 {
            fill: url(#linear-gradient-3);
            }

            .cls-10 {
            fill: url(#linear-gradient);
            }

            .cls-11 {
            fill: url(#linear-gradient-4);
            }

            .cls-12 {
            fill: url(#linear-gradient-8);
            }

            .cls-13 {
            fill: url(#linear-gradient-12);
            }

            .cls-14 {
            fill: url(#linear-gradient-13);
            }
        </style>
        <linearGradient id="linear-gradient" x1="359.96" y1="72.64" x2="257.29" y2="175.31"
                        gradientUnits="userSpaceOnUse">
            <stop offset="0" stop-color="#ffaf40"/>
            <stop offset=".08" stop-color="#ffba35"/>
            <stop offset=".28" stop-color="#ffd21d"/>
            <stop offset=".5" stop-color="#ffe40d"/>
            <stop offset=".73" stop-color="#ffee03"/>
            <stop offset="1" stop-color="#fff200"/>
        </linearGradient>
        <linearGradient id="linear-gradient-2" x1="425.71" y1="114.18" x2="406.1" y2="133.78"
                        xlink:href="#linear-gradient"/>
        <linearGradient id="linear-gradient-3" x1="210.61" y1="114.18" x2="191" y2="133.78"
                        xlink:href="#linear-gradient"/>
        <linearGradient id="linear-gradient-4" x1="318.43" y1="6.63" x2="298.82" y2="26.23"
                        gradientTransform="translate(325.05 -292.2) rotate(90)" xlink:href="#linear-gradient"/>
        <linearGradient id="linear-gradient-5" x1="318.43" y1="221.73" x2="298.82" y2="241.33"
                        gradientTransform="translate(540.15 -77.1) rotate(90)" xlink:href="#linear-gradient"/>
        <linearGradient id="linear-gradient-6" x1="238" y1="42.51" x2="227.16" y2="53.35"
                        gradientTransform="translate(430.92 -82.64) rotate(135)" xlink:href="#linear-gradient"/>
        <linearGradient id="linear-gradient-7" x1="390.1" y1="194.61" x2="379.25" y2="205.45"
                        gradientTransform="translate(798.12 69.46) rotate(135)" xlink:href="#linear-gradient"/>
        <linearGradient id="linear-gradient-8" x1="396.29" y1="36.31" x2="373.06" y2="59.54"
                        gradientTransform="translate(146.56 -257.97) rotate(45)" xlink:href="#linear-gradient"/>
        <linearGradient id="linear-gradient-9" x1="244.19" y1="188.41" x2="220.96" y2="211.64"
                        gradientTransform="translate(209.56 -105.87) rotate(45)" xlink:href="#linear-gradient"/>
        <linearGradient id="linear-gradient-10" x1="325.06" y1="98.35" x2="101.16" y2="322.25"
                        gradientUnits="userSpaceOnUse">
            <stop offset="0" stop-color="#fff"/>
            <stop offset=".22" stop-color="#fcfcfc" stop-opacity="1"/>
            <stop offset=".4" stop-color="#f3f3f3" stop-opacity=".99"/>
            <stop offset=".57" stop-color="#e4e4e4" stop-opacity=".97"/>
            <stop offset=".72" stop-color="#d0d0d0" stop-opacity=".95"/>
            <stop offset=".87" stop-color="#b5b5b5" stop-opacity=".93"/>
            <stop offset="1" stop-color="#999" stop-opacity=".9"/>
        </linearGradient>
        <linearGradient id="linear-gradient-11" x1="196.22" y1="166.84" x2="49.99" y2="313.06"
                        xlink:href="#linear-gradient-10"/>
        <linearGradient id="linear-gradient-12" x1="121.51" y1="367.16" x2="121.51" y2="330.91"
                        gradientUnits="userSpaceOnUse">
            <stop offset="0" stop-color="#22a6b3"/>
            <stop offset=".26" stop-color="#35b0bc"/>
            <stop offset=".8" stop-color="#68cbd4"/>
            <stop offset="1" stop-color="#7ed6df"/>
        </linearGradient>
        <linearGradient id="linear-gradient-13" x1="197.39" y1="367.16" x2="197.39" y2="330.91"
                        xlink:href="#linear-gradient-12"/>
        <linearGradient id="linear-gradient-14" x1="270.34" y1="367.16" x2="270.34" y2="330.91"
                        xlink:href="#linear-gradient-12"/>
    </defs>
    <g id="Layer_9">
        <g>
            <circle class="cls-10" cx="308.63" cy="123.98" r="72.6"/>
            <rect class="cls-1" x="399.48" y="116.31" width="32.85" height="15.33" rx="7.67" ry="7.67"/>
            <rect class="cls-9" x="184.38" y="116.31" width="32.85" height="15.33" rx="7.67" ry="7.67"/>
            <rect class="cls-11" x="292.2" y="8.76" width="32.85" height="15.33" rx="7.67" ry="7.67"
                  transform="translate(292.2 325.05) rotate(-90)"/>
            <rect class="cls-6" x="292.2" y="223.86" width="32.85" height="15.33" rx="7.67" ry="7.67"
                  transform="translate(77.1 540.15) rotate(-90)"/>
            <rect class="cls-3" x="216.15" y="40.26" width="32.85" height="15.33" rx="7.67" ry="7.67"
                  transform="translate(363.14 246.27) rotate(-135)"/>
            <rect class="cls-7" x="368.25" y="192.36" width="32.85" height="15.33" rx="7.67" ry="7.67"
                  transform="translate(515.24 613.48) rotate(-135)"/>
            <rect class="cls-12" x="368.25" y="40.26" width="32.85" height="15.33" rx="7.67" ry="7.67"
                  transform="translate(78.78 286.04) rotate(-45)"/>
            <rect class="cls-8" x="216.15" y="192.36" width="32.85" height="15.33" rx="7.67" ry="7.67"
                  transform="translate(-73.32 223.04) rotate(-45)"/>
        </g>
    </g>
    <g id="Layer_8">
        <path class="cls-5"
              d="M316.14,124.83h-1.95c-10.85,0-20.6-6.18-25.72-15.75-14.4-26.86-42.74-45.14-75.35-45.14h0c-32.44,0-60.64,18.07-75.12,44.7-5.48,10.07-16.18,16.19-27.65,16.19h-.27c-47.2,0-85.47,38.27-85.47,85.47h0c0,47.2,38.27,85.47,85.47,85.47h206.06c47.2,0,85.47-38.27,85.47-85.47h0c0-47.2-38.27-85.47-85.47-85.47Z"/>
    </g>
    <g id="Layer_7">
        <path class="cls-4"
              d="M190.4,184.13h-1.27c-7.09,0-13.45-4.04-16.8-10.28-9.41-17.54-27.91-29.48-49.21-29.48h0c-21.18,0-39.6,11.8-49.06,29.19-3.58,6.58-10.57,10.57-18.06,10.57h-.17C24.99,184.13,0,209.12,0,239.95H0c0,30.83,24.99,55.82,55.82,55.82H190.4c30.83,0,55.82-24.99,55.82-55.82h0c0-30.83-24.99-55.82-55.82-55.82Z"/>
    </g>
    <g id="Layer_6">
        <path class="cls-13"
              d="M133.21,359.41c.5-1.41,.7-2.88,.63-4.33,0-3.12-.14-6.47-.44-10.01-.45-5.2-1.2-9.95-2.08-14.16-3.15,2.01-6.62,4.49-10.21,7.53-3.61,3.05-6.64,6.07-9.15,8.84l.05,.02c-.73,.83-1.35,1.76-1.83,2.79-2.85,6.23,.66,13.67,6.85,16.17,6.16,2.5,13.87-.35,16.17-6.85Z"/>
    </g>
    <g id="Layer_5">
        <path class="cls-14"
              d="M209.08,359.41c.5-1.41,.7-2.88,.63-4.33,0-3.12-.14-6.47-.44-10.01-.45-5.2-1.2-9.95-2.08-14.16-3.15,2.01-6.62,4.49-10.21,7.53-3.61,3.05-6.64,6.07-9.15,8.84l.05,.02c-.73,.83-1.35,1.76-1.83,2.79-2.85,6.23,.66,13.67,6.85,16.17,6.16,2.5,13.87-.35,16.17-6.85Z"/>
    </g>
    <g id="Layer_3">
        <path class="cls-2"
              d="M282.03,359.41c.5-1.41,.7-2.88,.63-4.33,0-3.12-.14-6.47-.44-10.01-.45-5.2-1.2-9.95-2.08-14.16-3.15,2.01-6.62,4.49-10.21,7.53-3.61,3.05-6.64,6.07-9.15,8.84l.05,.02c-.73,.83-1.35,1.76-1.83,2.79-2.85,6.23,.66,13.67,6.85,16.17,6.16,2.5,13.87-.35,16.17-6.85Z"/>
    </g>
</svg>
