<svg xmlns="http://www.w3.org/2000/svg" enable-background="new 0 0 24 24" viewBox="0 0 24 24" width="48"
     height="48">
	<path
		d="M12,2C6.4771729,2,2,6.4771729,2,12s4.4771729,10,10,10c5.5202026-0.0062866,9.9937134-4.4797974,10-10C22,6.4771729,17.5228271,2,12,2z M12,21c-2.399292,0-4.5736084-0.9448242-6.1870117-2.4752197c0.6513672-2.0386353,2.2607422-3.6315918,4.3148193-4.2492676c3.4022827-1.0231323,6.9837036,0.8770752,8.0603027,4.248291C16.574585,20.0547485,14.3997803,21,12,21z M9,10c0-1.6568604,1.3431396-3,3-3c1.6561279,0.0018311,2.9981689,1.3438721,3,3c0,1.6568604-1.3431396,3-3,3S9,11.6568604,9,10z M18.9521484,17.7150879c-0.8389282-2.0930786-2.5731812-3.7128296-4.7496948-4.3815918C15.2834473,12.6174316,15.9984741,11.3934937,16,10c0-2.2091675-1.7908325-4-4-4s-4,1.7908325-4,4c0,1.3925171,0.7131348,2.6162109,1.7924805,3.3325806c-2.1052246,0.6505737-3.8860474,2.2174683-4.7496948,4.3756714C3.7667847,16.1548462,3,14.1671753,3,12c0-4.9705811,4.0294189-9,9-9c4.9682617,0.0056152,8.9943848,4.0317383,9,9C21,14.1702271,20.2313843,16.1607056,18.9521484,17.7150879z"
		fill="#000000" class="color000 svgShape">
	</path>
</svg>
